<?xml version="1.0" encoding="UTF-8"?>
<!DOCTYPE svg PUBLIC "-//W3C//DTD SVG 1.1//EN" "http://www.w3.org/Graphics/SVG/1.1/DTD/svg11.dtd">
<svg version="1.1" xmlns="http://www.w3.org/2000/svg" xmlns:xlink="http://www.w3.org/1999/xlink" x="0" y="0" width="500" height="655" viewBox="0, 0, 500, 655">
  <g id="Background">
    <rect x="0" y="0" width="500" height="655" fill="#000000" fill-opacity="0"/>
  </g>
  <g id="Calque_1">
    <path d="M250.816,398.483 C210.46,398.455 176.096,382.484 151.567,356.721 C127.058,330.942 112.473,295.296 112.457,255.851 L112.457,255.313 C112.457,217.194 126.541,181.62 150.735,155.654 C174.977,129.7 209.134,113.254 250.275,113.223 C291.563,113.254 325.41,130.413 349.357,156.908 C373.26,183.404 386.974,219.349 386.958,256.396 C386.974,293.15 373.272,328.82 349.436,355.12 C325.557,381.413 291.846,398.447 250.816,398.483 M249.737,41.142 C191.764,41.142 137.674,62.76 98.07,100.771 C58.438,138.755 33.408,193.243 33.439,258.005 L33.439,258.555 C33.439,315.592 56.248,368.615 94.614,407.347 C132.979,446.099 187.062,470.556 249.188,470.54 C310.999,470.556 365.464,446.676 404.347,407.849 C443.227,369.041 466.577,315.269 466.561,255.851 C466.577,196.421 443.227,142.649 404.411,103.837 C365.619,65.018 311.282,41.13 249.737,41.142" fill="#D94E45"/>
    <path d="M350.917,540.969 L149.085,540.969 C146.963,540.969 144.904,541.829 143.399,543.322 C141.894,544.82 141.054,546.89 141.054,549.013 L141.054,605.819 C141.054,607.937 141.894,610.008 143.399,611.501 C144.904,612.998 146.963,613.858 149.085,613.858 L350.917,613.858 C353.027,613.858 355.106,612.998 356.599,611.501 C358.1,610.008 358.956,607.937 358.956,605.819 L358.956,549.013 C358.956,546.89 358.1,544.82 356.599,543.326 C355.106,541.829 353.027,540.969 350.917,540.969" fill="#D94E45"/>
  </g>
</svg>
