<?xml version="1.0" encoding="UTF-8"?>
<!DOCTYPE svg PUBLIC "-//W3C//DTD SVG 1.1//EN" "http://www.w3.org/Graphics/SVG/1.1/DTD/svg11.dtd">
<svg version="1.1" xmlns="http://www.w3.org/2000/svg" xmlns:xlink="http://www.w3.org/1999/xlink" x="0" y="0" width="1500" height="600" viewBox="0, 0, 1500, 600">
  <g id="Background">
    <rect x="0" y="0" width="1500" height="600" fill="#000000" fill-opacity="0"/>
  </g>
  <g id="Rouge">
    <path d="M205.226,134.533 L20.117,134.533 C18.535,134.533 16.977,135.176 15.855,136.297 C14.728,137.428 14.085,138.983 14.085,140.571 L14.085,182.607 C14.085,184.201 14.728,185.756 15.855,186.881 C16.977,188.005 18.535,188.651 20.117,188.651 L82.795,188.651 L82.795,439.663 C82.795,441.257 83.435,442.812 84.563,443.933 C85.693,445.058 87.245,445.704 88.839,445.704 L136.516,445.704 C138.104,445.704 139.662,445.058 140.781,443.933 C141.911,442.812 142.551,441.257 142.551,439.663 L142.551,188.651 L205.226,188.651 C206.811,188.651 208.373,188.005 209.491,186.881 C210.622,185.756 211.262,184.201 211.262,182.607 L211.262,140.571 C211.262,138.983 210.622,137.428 209.491,136.303 C208.373,135.176 206.811,134.533 205.226,134.533" fill="#D94E45"/>
    <path d="M460.103,292.196 C429.793,292.175 403.984,280.179 385.561,260.83 C367.154,241.468 356.199,214.696 356.187,185.071 L356.187,184.667 C356.187,156.037 366.765,129.319 384.936,109.817 C403.144,90.324 428.797,77.972 459.697,77.949 C490.707,77.972 516.127,90.859 534.113,110.759 C552.066,130.659 562.366,157.655 562.354,185.48 C562.366,213.084 552.075,239.874 534.173,259.628 C516.238,279.375 490.919,292.169 460.103,292.196 M459.293,23.812 C415.752,23.812 375.127,40.048 345.382,68.597 C315.616,97.125 296.817,138.049 296.841,186.689 L296.841,187.101 C296.841,229.939 313.971,269.763 342.786,298.853 C371.601,327.958 412.22,346.326 458.88,346.315 C505.304,346.326 546.21,328.392 575.414,299.23 C604.615,270.083 622.152,229.697 622.14,185.071 C622.152,140.435 604.615,100.049 575.462,70.9 C546.327,41.744 505.516,23.803 459.293,23.812" fill="#D94E45"/>
    <path d="M871.187,400.214 L771.73,400.214 L771.73,149.203 C771.73,147.615 771.081,146.06 769.959,144.932 C768.838,143.808 767.28,143.162 765.686,143.162 L718.015,143.162 C716.421,143.162 714.862,143.808 713.741,144.929 C712.614,146.06 711.965,147.615 711.965,149.203 L711.965,448.295 C711.965,449.886 712.614,451.441 713.741,452.562 C714.862,453.687 716.421,454.333 718.015,454.333 L871.187,454.333 C872.778,454.333 874.33,453.687 875.457,452.562 C876.579,451.441 877.228,449.886 877.228,448.295 L877.228,406.252 C877.228,404.664 876.579,403.106 875.457,401.985 C874.33,400.86 872.778,400.214 871.187,400.214" fill="#D94E45"/>
    <path d="M1214.081,444.371 L1089.155,298.18 L1202.525,152.924 C1203.948,151.099 1204.2,148.629 1203.189,146.554 C1202.181,144.478 1200.069,143.162 1197.764,143.162 L1147.228,143.162 C1145.347,143.162 1143.594,144.023 1142.449,145.507 L1043.739,272.989 L1043.739,149.203 C1043.739,147.612 1043.09,146.057 1041.969,144.933 C1040.841,143.808 1039.292,143.162 1037.698,143.162 L990.024,143.162 C988.436,143.162 986.881,143.808 985.753,144.93 C984.623,146.057 983.989,147.612 983.989,149.203 L983.989,448.295 C983.989,449.886 984.623,451.441 985.753,452.563 C986.881,453.687 988.436,454.333 990.024,454.333 L1037.698,454.333 C1039.292,454.333 1040.841,453.687 1041.969,452.563 C1043.09,451.441 1043.739,449.886 1043.739,448.295 L1043.739,327.353 L1146.205,452.129 C1147.359,453.529 1149.064,454.333 1150.882,454.333 L1209.496,454.333 C1211.838,454.333 1213.997,452.955 1214.984,450.822 C1215.959,448.687 1215.606,446.157 1214.081,444.371" fill="#D94E45"/>
    <path d="M535.285,399.211 L383.697,399.211 C382.103,399.211 380.557,399.857 379.427,400.978 C378.296,402.103 377.665,403.658 377.665,405.252 L377.665,447.917 C377.665,449.508 378.296,451.063 379.427,452.184 C380.557,453.309 382.103,453.955 383.697,453.955 L535.285,453.955 C536.87,453.955 538.431,453.309 539.552,452.184 C540.68,451.063 541.323,449.508 541.323,447.917 L541.323,405.252 C541.323,403.658 540.68,402.103 539.552,400.981 C538.431,399.857 536.87,399.211 535.285,399.211" fill="#D94E45"/>
    <path d="M75.616,514.621 L75.616,584.188 L82.583,584.188 L82.583,556.512 C85.972,563.666 94.444,567.338 102.069,567.338 C117.037,567.338 129.934,555.947 129.934,540.603 C129.934,533.072 126.921,526.294 123.815,523.469 C117.225,516.409 110.259,513.491 102.728,513.491 C95.291,513.491 86.254,516.786 82.206,523.469 L82.206,514.621 z M102.257,560.654 C96.703,560.654 91.432,558.395 87.572,554.347 C83.524,550.299 82.112,545.592 82.112,539.944 C82.112,528.553 91.432,520.175 102.728,520.175 C113.93,520.175 122.968,529.306 122.968,540.508 C122.968,552.087 113.742,560.654 102.257,560.654 z" fill="#D94E45"/>
    <path d="M149.232,566.114 L156.198,566.114 L156.198,496.546 L149.232,496.546 z" fill="#D94E45"/>
    <path d="M222.848,514.621 L215.882,514.621 L215.882,541.826 C215.882,546.251 215.411,550.675 212.775,554.347 C209.763,558.395 205.15,560.654 200.161,560.654 C194.512,560.654 189.523,558.112 186.699,553.217 C184.628,549.734 184.44,545.78 184.44,541.826 L184.44,514.621 L177.473,514.621 L177.473,541.826 C177.473,548.604 178.038,554.817 181.145,558.112 C186.981,564.984 192.63,567.338 199.219,567.338 C206.374,567.338 212.869,564.702 216.258,558.112 L216.258,566.114 L222.848,566.114 z" fill="#D94E45"/>
    <path d="M240.111,550.958 C239.64,559.712 246.983,567.337 255.738,567.337 C265.34,567.337 272.4,560.654 272.4,550.958 C272.4,541.638 265.716,538.343 257.997,535.896 C253.479,534.483 248.96,532.977 248.96,527.329 C248.96,523.375 252.161,520.175 256.114,520.175 C260.633,520.175 264.116,522.905 264.116,527.423 L271.082,527.423 C271.082,519.892 264.587,513.491 256.868,513.491 C248.772,513.491 241.994,519.516 241.994,527.894 C241.994,531.565 243.406,535.237 246.136,537.684 C248.678,540.132 252.161,541.167 255.455,542.203 C260.539,543.615 265.434,545.874 265.434,552.087 C265.434,557.171 261.386,560.654 256.397,560.654 C251.125,560.654 246.889,556.229 247.077,550.958 z" fill="#D94E45"/>
    <path d="M325.552,514.621 L325.552,584.188 L332.518,584.188 L332.518,556.512 C335.907,563.666 344.379,567.338 352.004,567.338 C366.972,567.338 379.869,555.947 379.869,540.603 C379.869,533.072 376.857,526.294 373.75,523.469 C367.161,516.409 360.194,513.491 352.663,513.491 C345.227,513.491 336.189,516.786 332.141,523.469 L332.141,514.621 z M352.193,560.654 C346.639,560.654 341.367,558.395 337.507,554.347 C333.459,550.299 332.047,545.592 332.047,539.944 C332.047,528.553 341.367,520.175 352.663,520.175 C363.866,520.175 372.903,529.306 372.903,540.508 C372.903,552.087 363.677,560.654 352.193,560.654 z" fill="#D94E45"/>
    <path d="M399.167,566.114 L406.134,566.114 L406.134,537.308 C406.134,531.471 406.604,527.988 411.405,523.94 C414.324,521.492 416.959,520.645 420.725,520.363 L420.725,513.491 C414.418,513.679 408.487,515.938 405.757,522.057 L405.757,514.62 L399.167,514.62 z" fill="#D94E45"/>
    <path d="M460.074,513.491 C445.012,513.491 433.057,525.729 433.057,540.697 C433.057,555.476 445.483,567.337 460.074,567.337 C474.948,567.337 486.809,554.723 486.809,540.038 C486.809,525.729 474.383,513.491 460.074,513.491 z M460.074,520.175 C465.158,520.175 470.147,522.34 473.818,525.823 C477.96,529.777 479.843,534.389 479.843,540.038 C479.843,551.24 471.559,560.654 460.074,560.654 C449.06,560.654 440.023,551.711 440.023,540.697 C440.023,529.494 448.684,520.175 460.074,520.175 z" fill="#D94E45"/>
    <path d="M549.599,551.052 C545.081,557.359 539.526,560.654 531.525,560.654 C520.04,560.654 511.097,551.617 511.097,540.226 C511.097,528.647 520.699,520.175 532.09,520.175 C539.15,520.175 546.022,524.128 549.599,530.247 L557.413,530.247 C553.459,519.892 542.915,513.491 531.995,513.491 C517.122,513.491 504.131,525.07 504.131,540.32 C504.131,556.041 516.933,567.337 532.278,567.337 C543.386,567.337 552.706,561.124 557.318,551.052 z" fill="#D94E45"/>
    <path d="M576.428,566.114 L583.395,566.114 L583.395,539.002 C583.395,534.672 583.395,530.059 586.03,526.482 C588.949,522.622 593.938,520.175 598.739,520.175 C603.917,520.175 609,522.434 612.012,526.67 C614.648,530.436 615.025,534.484 615.025,539.002 L615.025,566.114 L621.991,566.114 L621.991,539.002 C621.991,532.413 621.05,526.482 616.625,521.398 C612.201,516.315 605.705,513.491 599.021,513.491 C592.808,513.491 586.407,516.409 583.395,522.057 L583.395,496.546 L576.428,496.546 z" fill="#D94E45"/>
    <path d="M694.854,542.862 C694.665,535.425 693.63,529.4 688.829,523.469 C683.651,517.162 676.214,513.491 668.118,513.491 C653.151,513.491 641.289,525.446 641.289,540.414 C641.289,555.476 653.245,567.337 668.307,567.337 C679.227,567.337 689.77,559.712 693.347,549.357 L686.099,549.357 C682.992,556.418 675.273,560.654 667.648,560.654 C658.14,560.654 648.632,552.652 648.255,542.862 z M648.255,536.555 C649.95,527.047 658.516,520.175 668.213,520.175 C677.721,520.175 686.099,527.423 687.887,536.555 z" fill="#D94E45"/>
    <path d="M716.505,572.421 L723.471,572.421 L731.755,554.253 L724.789,554.253 z" fill="#D94E45"/>
    <path d="M774.494,514.621 L774.494,584.188 L781.46,584.188 L781.46,556.512 C784.849,563.666 793.321,567.338 800.947,567.338 C815.914,567.338 828.811,555.947 828.811,540.603 C828.811,533.072 825.799,526.294 822.692,523.469 C816.103,516.409 809.137,513.491 801.606,513.491 C794.169,513.491 785.132,516.786 781.084,523.469 L781.084,514.621 z M801.135,560.654 C795.581,560.654 790.309,558.395 786.449,554.347 C782.401,550.299 780.989,545.592 780.989,539.944 C780.989,528.553 790.309,520.175 801.606,520.175 C812.808,520.175 821.845,529.306 821.845,540.508 C821.845,552.087 812.62,560.654 801.135,560.654 z" fill="#D94E45"/>
    <path d="M848.109,566.114 L855.076,566.114 L855.076,496.546 L848.109,496.546 z" fill="#D94E45"/>
    <path d="M921.725,514.621 L914.759,514.621 L914.759,541.826 C914.759,546.251 914.288,550.675 911.652,554.347 C908.64,558.395 904.027,560.654 899.038,560.654 C893.39,560.654 888.4,558.112 885.576,553.217 C883.505,549.734 883.317,545.78 883.317,541.826 L883.317,514.621 L876.351,514.621 L876.351,541.826 C876.351,548.604 876.916,554.817 880.022,558.112 C885.859,564.984 891.507,567.338 898.097,567.338 C905.251,567.338 911.747,564.702 915.135,558.112 L915.135,566.114 L921.725,566.114 z" fill="#D94E45"/>
    <path d="M938.989,550.958 C938.518,559.712 945.861,567.337 954.615,567.337 C964.218,567.337 971.278,560.654 971.278,550.958 C971.278,541.638 964.594,538.343 956.875,535.896 C952.356,534.483 947.838,532.977 947.838,527.329 C947.838,523.375 951.038,520.175 954.992,520.175 C959.511,520.175 962.994,522.905 962.994,527.423 L969.96,527.423 C969.96,519.892 963.464,513.491 955.745,513.491 C947.649,513.491 940.871,519.516 940.871,527.894 C940.871,531.565 942.283,535.237 945.013,537.684 C947.555,540.132 951.038,541.167 954.333,542.203 C959.417,543.615 964.312,545.874 964.312,552.087 C964.312,557.171 960.264,560.654 955.274,560.654 C950.003,560.654 945.767,556.229 945.955,550.958 z" fill="#D94E45"/>
    <path d="M1024.429,514.621 L1024.429,584.188 L1031.395,584.188 L1031.395,556.512 C1034.784,563.666 1043.257,567.338 1050.882,567.338 C1065.85,567.338 1078.747,555.947 1078.747,540.603 C1078.747,533.072 1075.734,526.294 1072.628,523.469 C1066.038,516.409 1059.072,513.491 1051.541,513.491 C1044.104,513.491 1035.067,516.786 1031.019,523.469 L1031.019,514.621 z M1051.07,560.654 C1045.516,560.654 1040.244,558.395 1036.385,554.347 C1032.337,550.299 1030.925,545.592 1030.925,539.944 C1030.925,528.553 1040.244,520.175 1051.541,520.175 C1062.743,520.175 1071.78,529.306 1071.78,540.508 C1071.78,552.087 1062.555,560.654 1051.07,560.654 z" fill="#D94E45"/>
    <path d="M1098.045,566.114 L1105.011,566.114 L1105.011,537.308 C1105.011,531.471 1105.482,527.988 1110.283,523.94 C1113.201,521.492 1115.837,520.645 1119.602,520.363 L1119.602,513.491 C1113.295,513.679 1107.365,515.938 1104.635,522.057 L1104.635,514.62 L1098.045,514.62 z" fill="#D94E45"/>
    <path d="M1158.952,513.491 C1143.89,513.491 1131.934,525.729 1131.934,540.697 C1131.934,555.476 1144.36,567.337 1158.952,567.337 C1173.825,567.337 1185.687,554.723 1185.687,540.038 C1185.687,525.729 1173.261,513.491 1158.952,513.491 z M1158.952,520.175 C1164.035,520.175 1169.024,522.34 1172.696,525.823 C1176.838,529.777 1178.721,534.389 1178.721,540.038 C1178.721,551.24 1170.436,560.654 1158.952,560.654 C1147.938,560.654 1138.9,551.711 1138.9,540.697 C1138.9,529.494 1147.561,520.175 1158.952,520.175 z" fill="#D94E45"/>
    <path d="M1208.562,566.114 L1215.529,566.114 L1215.529,554.252 L1208.562,554.252 z" fill="#D94E45"/>
    <text transform="matrix(1, -0.008, 0.008, 1, 1355.28, 432.583)">
      <tspan x="-130.68" y="20.088" font-family="BentonSans-Black" font-size="144" fill="#D94E45">.me</tspan>
    </text>
  </g>
  <g id="Blanc" display="none">
    <path d="M205.226,134.533 L20.117,134.533 C18.535,134.533 16.977,135.176 15.855,136.297 C14.728,137.428 14.085,138.983 14.085,140.571 L14.085,182.607 C14.085,184.201 14.728,185.756 15.855,186.881 C16.977,188.005 18.535,188.651 20.117,188.651 L82.795,188.651 L82.795,439.663 C82.795,441.257 83.435,442.812 84.563,443.933 C85.693,445.058 87.245,445.704 88.839,445.704 L136.516,445.704 C138.104,445.704 139.662,445.058 140.781,443.933 C141.911,442.812 142.551,441.257 142.551,439.663 L142.551,188.651 L205.226,188.651 C206.811,188.651 208.373,188.005 209.491,186.881 C210.622,185.756 211.262,184.201 211.262,182.607 L211.262,140.571 C211.262,138.983 210.622,137.428 209.491,136.303 C208.373,135.176 206.811,134.533 205.226,134.533" fill="#D94E45"/>
    <path d="M460.103,292.196 C429.793,292.175 403.984,280.179 385.561,260.83 C367.154,241.468 356.199,214.696 356.187,185.071 L356.187,184.667 C356.187,156.037 366.765,129.319 384.936,109.817 C403.144,90.324 428.797,77.972 459.697,77.949 C490.707,77.972 516.127,90.859 534.113,110.759 C552.066,130.659 562.366,157.655 562.354,185.48 C562.366,213.084 552.075,239.874 534.173,259.628 C516.238,279.375 490.919,292.169 460.103,292.196 M459.293,23.812 C415.752,23.812 375.127,40.048 345.382,68.597 C315.616,97.125 296.817,138.049 296.841,186.689 L296.841,187.101 C296.841,229.939 313.971,269.763 342.786,298.853 C371.601,327.958 412.22,346.326 458.88,346.315 C505.304,346.326 546.21,328.392 575.414,299.23 C604.615,270.083 622.152,229.697 622.14,185.071 C622.152,140.435 604.615,100.049 575.462,70.9 C546.327,41.744 505.516,23.803 459.293,23.812" fill="#D94E45"/>
    <path d="M871.187,400.214 L771.73,400.214 L771.73,149.203 C771.73,147.615 771.081,146.06 769.959,144.932 C768.838,143.808 767.28,143.162 765.686,143.162 L718.015,143.162 C716.421,143.162 714.862,143.808 713.741,144.929 C712.614,146.06 711.965,147.615 711.965,149.203 L711.965,448.295 C711.965,449.886 712.614,451.441 713.741,452.562 C714.862,453.687 716.421,454.333 718.015,454.333 L871.187,454.333 C872.778,454.333 874.33,453.687 875.457,452.562 C876.579,451.441 877.228,449.886 877.228,448.295 L877.228,406.252 C877.228,404.664 876.579,403.106 875.457,401.985 C874.33,400.86 872.778,400.214 871.187,400.214" fill="#D94E45"/>
    <path d="M1214.081,444.371 L1089.155,298.18 L1202.525,152.924 C1203.948,151.099 1204.2,148.629 1203.189,146.554 C1202.181,144.478 1200.069,143.162 1197.764,143.162 L1147.228,143.162 C1145.347,143.162 1143.594,144.023 1142.449,145.507 L1043.739,272.989 L1043.739,149.203 C1043.739,147.612 1043.09,146.057 1041.969,144.933 C1040.841,143.808 1039.292,143.162 1037.698,143.162 L990.024,143.162 C988.436,143.162 986.881,143.808 985.753,144.93 C984.623,146.057 983.989,147.612 983.989,149.203 L983.989,448.295 C983.989,449.886 984.623,451.441 985.753,452.563 C986.881,453.687 988.436,454.333 990.024,454.333 L1037.698,454.333 C1039.292,454.333 1040.841,453.687 1041.969,452.563 C1043.09,451.441 1043.739,449.886 1043.739,448.295 L1043.739,327.353 L1146.205,452.129 C1147.359,453.529 1149.064,454.333 1150.882,454.333 L1209.496,454.333 C1211.838,454.333 1213.997,452.955 1214.984,450.822 C1215.959,448.687 1215.606,446.157 1214.081,444.371" fill="#D94E45"/>
    <path d="M535.285,399.211 L383.697,399.211 C382.103,399.211 380.557,399.857 379.427,400.978 C378.296,402.103 377.665,403.658 377.665,405.252 L377.665,447.917 C377.665,449.508 378.296,451.063 379.427,452.184 C380.557,453.309 382.103,453.955 383.697,453.955 L535.285,453.955 C536.87,453.955 538.431,453.309 539.552,452.184 C540.68,451.063 541.323,449.508 541.323,447.917 L541.323,405.252 C541.323,403.658 540.68,402.103 539.552,400.981 C538.431,399.857 536.87,399.211 535.285,399.211" fill="#D94E45"/>
    <path d="M75.616,514.621 L75.616,584.188 L82.583,584.188 L82.583,556.512 C85.972,563.666 94.444,567.338 102.069,567.338 C117.037,567.338 129.934,555.947 129.934,540.603 C129.934,533.072 126.921,526.294 123.815,523.469 C117.225,516.409 110.259,513.491 102.728,513.491 C95.291,513.491 86.254,516.786 82.206,523.469 L82.206,514.621 z M102.257,560.654 C96.703,560.654 91.432,558.395 87.572,554.347 C83.524,550.299 82.112,545.592 82.112,539.944 C82.112,528.553 91.432,520.175 102.728,520.175 C113.93,520.175 122.968,529.306 122.968,540.508 C122.968,552.087 113.742,560.654 102.257,560.654 z" fill="#D94E45"/>
    <path d="M149.232,566.114 L156.198,566.114 L156.198,496.546 L149.232,496.546 z" fill="#D94E45"/>
    <path d="M222.848,514.621 L215.882,514.621 L215.882,541.826 C215.882,546.251 215.411,550.675 212.775,554.347 C209.763,558.395 205.15,560.654 200.161,560.654 C194.512,560.654 189.523,558.112 186.699,553.217 C184.628,549.734 184.44,545.78 184.44,541.826 L184.44,514.621 L177.473,514.621 L177.473,541.826 C177.473,548.604 178.038,554.817 181.145,558.112 C186.981,564.984 192.63,567.338 199.219,567.338 C206.374,567.338 212.869,564.702 216.258,558.112 L216.258,566.114 L222.848,566.114 z" fill="#D94E45"/>
    <path d="M240.111,550.958 C239.64,559.712 246.983,567.337 255.738,567.337 C265.34,567.337 272.4,560.654 272.4,550.958 C272.4,541.638 265.716,538.343 257.997,535.896 C253.479,534.483 248.96,532.977 248.96,527.329 C248.96,523.375 252.161,520.175 256.114,520.175 C260.633,520.175 264.116,522.905 264.116,527.423 L271.082,527.423 C271.082,519.892 264.587,513.491 256.868,513.491 C248.772,513.491 241.994,519.516 241.994,527.894 C241.994,531.565 243.406,535.237 246.136,537.684 C248.678,540.132 252.161,541.167 255.455,542.203 C260.539,543.615 265.434,545.874 265.434,552.087 C265.434,557.171 261.386,560.654 256.397,560.654 C251.125,560.654 246.889,556.229 247.077,550.958 z" fill="#D94E45"/>
    <path d="M325.552,514.621 L325.552,584.188 L332.518,584.188 L332.518,556.512 C335.907,563.666 344.379,567.338 352.004,567.338 C366.972,567.338 379.869,555.947 379.869,540.603 C379.869,533.072 376.857,526.294 373.75,523.469 C367.161,516.409 360.194,513.491 352.663,513.491 C345.227,513.491 336.189,516.786 332.141,523.469 L332.141,514.621 z M352.193,560.654 C346.639,560.654 341.367,558.395 337.507,554.347 C333.459,550.299 332.047,545.592 332.047,539.944 C332.047,528.553 341.367,520.175 352.663,520.175 C363.866,520.175 372.903,529.306 372.903,540.508 C372.903,552.087 363.677,560.654 352.193,560.654 z" fill="#D94E45"/>
    <path d="M399.167,566.114 L406.134,566.114 L406.134,537.308 C406.134,531.471 406.604,527.988 411.405,523.94 C414.324,521.492 416.959,520.645 420.725,520.363 L420.725,513.491 C414.418,513.679 408.487,515.938 405.757,522.057 L405.757,514.62 L399.167,514.62 z" fill="#D94E45"/>
    <path d="M460.074,513.491 C445.012,513.491 433.057,525.729 433.057,540.697 C433.057,555.476 445.483,567.337 460.074,567.337 C474.948,567.337 486.809,554.723 486.809,540.038 C486.809,525.729 474.383,513.491 460.074,513.491 z M460.074,520.175 C465.158,520.175 470.147,522.34 473.818,525.823 C477.96,529.777 479.843,534.389 479.843,540.038 C479.843,551.24 471.559,560.654 460.074,560.654 C449.06,560.654 440.023,551.711 440.023,540.697 C440.023,529.494 448.684,520.175 460.074,520.175 z" fill="#D94E45"/>
    <path d="M549.599,551.052 C545.081,557.359 539.526,560.654 531.525,560.654 C520.04,560.654 511.097,551.617 511.097,540.226 C511.097,528.647 520.699,520.175 532.09,520.175 C539.15,520.175 546.022,524.128 549.599,530.247 L557.413,530.247 C553.459,519.892 542.915,513.491 531.995,513.491 C517.122,513.491 504.131,525.07 504.131,540.32 C504.131,556.041 516.933,567.337 532.278,567.337 C543.386,567.337 552.706,561.124 557.318,551.052 z" fill="#D94E45"/>
    <path d="M576.428,566.114 L583.395,566.114 L583.395,539.002 C583.395,534.672 583.395,530.059 586.03,526.482 C588.949,522.622 593.938,520.175 598.739,520.175 C603.917,520.175 609,522.434 612.012,526.67 C614.648,530.436 615.025,534.484 615.025,539.002 L615.025,566.114 L621.991,566.114 L621.991,539.002 C621.991,532.413 621.05,526.482 616.625,521.398 C612.201,516.315 605.705,513.491 599.021,513.491 C592.808,513.491 586.407,516.409 583.395,522.057 L583.395,496.546 L576.428,496.546 z" fill="#D94E45"/>
    <path d="M694.854,542.862 C694.665,535.425 693.63,529.4 688.829,523.469 C683.651,517.162 676.214,513.491 668.118,513.491 C653.151,513.491 641.289,525.446 641.289,540.414 C641.289,555.476 653.245,567.337 668.307,567.337 C679.227,567.337 689.77,559.712 693.347,549.357 L686.099,549.357 C682.992,556.418 675.273,560.654 667.648,560.654 C658.14,560.654 648.632,552.652 648.255,542.862 z M648.255,536.555 C649.95,527.047 658.516,520.175 668.213,520.175 C677.721,520.175 686.099,527.423 687.887,536.555 z" fill="#D94E45"/>
    <path d="M716.505,572.421 L723.471,572.421 L731.755,554.253 L724.789,554.253 z" fill="#D94E45"/>
    <path d="M774.494,514.621 L774.494,584.188 L781.46,584.188 L781.46,556.512 C784.849,563.666 793.321,567.338 800.947,567.338 C815.914,567.338 828.811,555.947 828.811,540.603 C828.811,533.072 825.799,526.294 822.692,523.469 C816.103,516.409 809.137,513.491 801.606,513.491 C794.169,513.491 785.132,516.786 781.084,523.469 L781.084,514.621 z M801.135,560.654 C795.581,560.654 790.309,558.395 786.449,554.347 C782.401,550.299 780.989,545.592 780.989,539.944 C780.989,528.553 790.309,520.175 801.606,520.175 C812.808,520.175 821.845,529.306 821.845,540.508 C821.845,552.087 812.62,560.654 801.135,560.654 z" fill="#D94E45"/>
    <path d="M848.109,566.114 L855.076,566.114 L855.076,496.546 L848.109,496.546 z" fill="#D94E45"/>
    <path d="M921.725,514.621 L914.759,514.621 L914.759,541.826 C914.759,546.251 914.288,550.675 911.652,554.347 C908.64,558.395 904.027,560.654 899.038,560.654 C893.39,560.654 888.4,558.112 885.576,553.217 C883.505,549.734 883.317,545.78 883.317,541.826 L883.317,514.621 L876.351,514.621 L876.351,541.826 C876.351,548.604 876.916,554.817 880.022,558.112 C885.859,564.984 891.507,567.338 898.097,567.338 C905.251,567.338 911.747,564.702 915.135,558.112 L915.135,566.114 L921.725,566.114 z" fill="#D94E45"/>
    <path d="M938.989,550.958 C938.518,559.712 945.861,567.337 954.615,567.337 C964.218,567.337 971.278,560.654 971.278,550.958 C971.278,541.638 964.594,538.343 956.875,535.896 C952.356,534.483 947.838,532.977 947.838,527.329 C947.838,523.375 951.038,520.175 954.992,520.175 C959.511,520.175 962.994,522.905 962.994,527.423 L969.96,527.423 C969.96,519.892 963.464,513.491 955.745,513.491 C947.649,513.491 940.871,519.516 940.871,527.894 C940.871,531.565 942.283,535.237 945.013,537.684 C947.555,540.132 951.038,541.167 954.333,542.203 C959.417,543.615 964.312,545.874 964.312,552.087 C964.312,557.171 960.264,560.654 955.274,560.654 C950.003,560.654 945.767,556.229 945.955,550.958 z" fill="#D94E45"/>
    <path d="M1024.429,514.621 L1024.429,584.188 L1031.395,584.188 L1031.395,556.512 C1034.784,563.666 1043.257,567.338 1050.882,567.338 C1065.85,567.338 1078.747,555.947 1078.747,540.603 C1078.747,533.072 1075.734,526.294 1072.628,523.469 C1066.038,516.409 1059.072,513.491 1051.541,513.491 C1044.104,513.491 1035.067,516.786 1031.019,523.469 L1031.019,514.621 z M1051.07,560.654 C1045.516,560.654 1040.244,558.395 1036.385,554.347 C1032.337,550.299 1030.925,545.592 1030.925,539.944 C1030.925,528.553 1040.244,520.175 1051.541,520.175 C1062.743,520.175 1071.78,529.306 1071.78,540.508 C1071.78,552.087 1062.555,560.654 1051.07,560.654 z" fill="#D94E45"/>
    <path d="M1098.045,566.114 L1105.011,566.114 L1105.011,537.308 C1105.011,531.471 1105.482,527.988 1110.283,523.94 C1113.201,521.492 1115.837,520.645 1119.602,520.363 L1119.602,513.491 C1113.295,513.679 1107.365,515.938 1104.635,522.057 L1104.635,514.62 L1098.045,514.62 z" fill="#D94E45"/>
    <path d="M1158.952,513.491 C1143.89,513.491 1131.934,525.729 1131.934,540.697 C1131.934,555.476 1144.36,567.337 1158.952,567.337 C1173.825,567.337 1185.687,554.723 1185.687,540.038 C1185.687,525.729 1173.261,513.491 1158.952,513.491 z M1158.952,520.175 C1164.035,520.175 1169.024,522.34 1172.696,525.823 C1176.838,529.777 1178.721,534.389 1178.721,540.038 C1178.721,551.24 1170.436,560.654 1158.952,560.654 C1147.938,560.654 1138.9,551.711 1138.9,540.697 C1138.9,529.494 1147.561,520.175 1158.952,520.175 z" fill="#D94E45"/>
    <path d="M1208.562,566.114 L1215.529,566.114 L1215.529,554.252 L1208.562,554.252 z" fill="#D94E45"/>
    <text transform="matrix(1, -0.008, 0.008, 1, 1355.28, 432.583)">
      <tspan x="-130.68" y="20.088" font-family="BentonSans-Black" font-size="144" fill="#D94E45">.me</tspan>
    </text>
  </g>
</svg>
